<svg width="40" height="40" viewBox="0 0 40 40" fill="none" xmlns="http://www.w3.org/2000/svg">
<path d="M20.0007 3.33203C10.8007 3.33203 3.33398 10.7987 3.33398 19.9987C3.33398 29.1987 10.8007 36.6654 20.0007 36.6654C29.2007 36.6654 36.6673 29.1987 36.6673 19.9987C36.6673 10.7987 29.2007 3.33203 20.0007 3.33203ZM26.2507 18.7487C26.934 18.7487 27.5007 19.3154 27.5007 19.9987C27.5007 20.682 26.934 21.2487 26.2507 21.2487H14.1673V21.6654C14.1673 23.732 15.8507 25.4154 17.9173 25.4154H26.2507C26.934 25.4154 27.5007 25.982 27.5007 26.6654C27.5007 27.3487 26.934 27.9154 26.2507 27.9154H17.9173C14.4673 27.9154 11.6673 25.1154 11.6673 21.6654V18.332C11.6673 14.882 14.4673 12.082 17.9173 12.082H26.2507C26.934 12.082 27.5007 12.6487 27.5007 13.332C27.5007 14.0154 26.934 14.582 26.2507 14.582H17.9173C15.8507 14.582 14.1673 16.2654 14.1673 18.332V18.7487H26.2507Z" fill="#FED307"/>
</svg>
