<svg width="32" height="32" viewBox="0 0 32 32" fill="none" xmlns="http://www.w3.org/2000/svg">
<g id="vuesax/bold/shopping-cart">
<g id="shopping-cart">
<path id="Vector" d="M21.6663 30.0007C22.955 30.0007 23.9997 28.956 23.9997 27.6673C23.9997 26.3787 22.955 25.334 21.6663 25.334C20.3777 25.334 19.333 26.3787 19.333 27.6673C19.333 28.956 20.3777 30.0007 21.6663 30.0007Z" fill="#FED307"/>
<path id="Vector_2" d="M11.0003 30.0007C12.289 30.0007 13.3337 28.956 13.3337 27.6673C13.3337 26.3787 12.289 25.334 11.0003 25.334C9.71166 25.334 8.66699 26.3787 8.66699 27.6673C8.66699 28.956 9.71166 30.0007 11.0003 30.0007Z" fill="#FED307"/>
<path id="Vector_3" d="M6.45366 5.25268L6.18699 8.51935C6.13366 9.14602 6.62699 9.66602 7.25366 9.66602H27.667C28.227 9.66602 28.6937 9.23935 28.7337 8.67935C28.907 6.31935 27.107 4.39935 24.747 4.39935H8.36033C8.22699 3.81268 7.96033 3.25268 7.54699 2.78602C6.88033 2.07935 5.94699 1.66602 4.98699 1.66602H2.66699C2.12033 1.66602 1.66699 2.11935 1.66699 2.66602C1.66699 3.21268 2.12033 3.66602 2.66699 3.66602H4.98699C5.40033 3.66602 5.78699 3.83935 6.06699 4.13268C6.34699 4.43935 6.48033 4.83935 6.45366 5.25268Z" fill="#FED307"/>
<path id="Vector_4" d="M27.3464 11.666H6.89308C6.33308 11.666 5.87974 12.0927 5.82641 12.6393L5.34641 18.4393C5.15975 20.7193 6.94641 22.666 9.22641 22.666H24.0531C26.0531 22.666 27.8131 21.026 27.9597 19.026L28.3997 12.7993C28.4531 12.186 27.9731 11.666 27.3464 11.666Z" fill="#FED307"/>
</g>
</g>
</svg>
